<svg width="214" height="200" viewBox="0 0 214 200" fill="none" xmlns="http://www.w3.org/2000/svg">
<ellipse cx="107" cy="99.5515" rx="107" ry="99.5515" fill="#E1DACF"/>
<g clip-path="url(#clip0)">
<path d="M106.554 16.5918C92.3658 16.5918 83.8734 18.6237 78.4752 21.1572C75.7728 22.4271 73.8541 23.7605 72.5637 25.1257C71.2665 26.4908 70.449 28.4973 70.449 28.4973C70.2371 29.0072 70.0964 29.5408 70.0301 30.0847L66.4359 73.5414C66.3886 73.8081 66.4832 74.2398 66.4359 74.5319L66.017 78.9004C65.9777 79.2954 65.9777 79.6929 66.017 80.0878C66.017 101.041 84.2584 118.185 106.554 118.185C128.849 118.185 147.09 101.041 147.09 80.0878V79.0973C147.091 79.0317 147.091 78.966 147.09 78.9004L143.077 30.0847C143.011 29.5408 142.87 29.0072 142.658 28.4973C142.658 28.4973 141.841 26.4908 140.543 25.1257C139.253 23.7541 137.334 22.4207 134.632 21.1572C129.234 18.6173 120.741 16.5918 106.554 16.5918ZM106.554 118.185C61.9634 118.185 25.4805 137.907 25.4805 155.686V181.681H187.627V155.686C187.627 138.796 154.643 120.192 113.1 118.382C110.921 118.247 108.738 118.181 106.554 118.185ZM106.554 29.291C119.39 29.291 125.802 31.1959 128.511 32.4658C129.416 32.8912 129.524 33.0563 129.781 33.2595L132.524 65.8012C126.308 66.1568 117.836 67.3886 106.554 67.3886C95.2709 67.3886 86.8055 66.1568 80.5831 65.8012L83.3261 33.2595C83.5761 33.0563 83.6909 32.8912 84.5963 32.4658C87.3054 31.1959 93.717 29.291 106.554 29.291ZM101.061 35.6406V43.1839H93.0414V53.502H101.068V61.039H112.039V53.4957H120.066V43.1839H112.039V35.6406H101.068H101.061ZM86.2853 132.472L103.601 168.982H38.9926V155.686C38.9926 150.956 56.2207 137.101 86.2853 132.472ZM126.822 132.472C156.886 137.107 174.114 150.956 174.114 155.686V168.982H109.506L126.822 132.472Z" fill="black"/>
</g>
<defs>
<clipPath id="clip0">
<rect x="18.7246" y="16.5918" width="175.658" height="165.09" rx="82.5448" fill="white"/>
</clipPath>
</defs>
</svg>
