<svg width="41" height="39" viewBox="0 0 41 39" fill="none" xmlns="http://www.w3.org/2000/svg">
<g clip-path="url(#clip0)">
<path d="M35.8756 27.02C33.3131 22.573 30.7506 23.2751 27.9318 23.0411C28.1881 23.7432 28.1881 24.4454 28.1881 25.3816C32.2881 26.3178 33.3131 30.7648 33.3131 33.3394V35.6799H28.1881V33.3394H30.7506C30.7506 33.3394 30.7506 27.4881 26.9068 27.4881C23.0631 27.4881 23.0631 33.1053 23.0631 33.3394H25.6256V35.6799H20.5006V33.3394C20.5006 30.7648 21.5256 26.0837 25.6256 25.3816C25.6256 23.9773 25.3693 22.807 25.1131 22.3389C24.6006 22.1049 24.0881 21.6367 24.0881 20.9346C24.0881 19.5303 26.1381 19.9984 27.6756 17.4238C27.6756 17.4238 29.9818 12.0406 29.2131 7.35955H26.6506C26.6506 6.89144 26.9068 6.65739 26.9068 6.18928C26.9068 5.72118 26.9068 5.48712 26.6506 5.01902H28.7006C27.9318 2.67849 25.3693 0.572021 20.5006 0.572021C15.6318 0.572021 13.0693 2.67849 12.0443 5.25307H14.0943C14.0943 5.72118 13.8381 5.95523 13.8381 6.42334C13.8381 6.89144 13.8381 7.12549 14.0943 7.5936H11.5318C11.0193 12.2746 13.0693 17.6579 13.0693 17.6579C14.6068 19.9984 16.6568 19.5303 16.6568 21.1686C16.6568 22.3389 15.3756 22.807 13.8381 23.0411C13.3256 23.5092 12.8131 24.4454 12.8131 26.3178V29.1264C14.3506 29.5945 15.3756 30.9989 15.3756 32.4032C15.3756 34.0415 13.5818 35.6799 11.5318 35.6799C9.48184 35.6799 7.68809 34.0415 7.68809 32.1691C7.68809 30.5307 8.71309 29.3605 10.2506 28.8924V26.0837C10.2506 24.9135 10.5068 23.9773 10.7631 23.0411C8.96934 23.2751 6.91934 23.9773 5.12559 27.02C3.58809 29.5945 2.81934 38.0204 2.81934 38.0204H37.9256C38.1818 38.0204 37.4131 29.5945 35.8756 27.02ZM16.6568 6.42334C16.6568 4.55091 18.4506 2.91255 20.5006 2.91255C22.5506 2.91255 24.3443 4.55091 24.3443 6.42334C24.3443 8.29576 22.5506 9.93412 20.5006 9.93412C18.4506 9.93412 16.6568 8.29576 16.6568 6.42334Z" fill="black"/>
<path d="M12.8125 32.169C12.8125 32.4794 12.6775 32.7771 12.4372 32.9965C12.1969 33.216 11.8711 33.3393 11.5312 33.3393C11.1914 33.3393 10.8656 33.216 10.6253 32.9965C10.385 32.7771 10.25 32.4794 10.25 32.169C10.25 31.8587 10.385 31.561 10.6253 31.3415C10.8656 31.1221 11.1914 30.9988 11.5312 30.9988C11.8711 30.9988 12.1969 31.1221 12.4372 31.3415C12.6775 31.561 12.8125 31.8587 12.8125 32.169Z" fill="black"/>
</g>
<defs>
<clipPath id="clip0">
<rect width="41" height="37.4484" fill="white" transform="translate(0 0.572021)"/>
</clipPath>
</defs>
</svg>
