<svg width="25" height="27" viewBox="0 0 25 27" fill="none" xmlns="http://www.w3.org/2000/svg">
<path d="M2.93395 26.7799C2.93395 26.7799 0.956055 26.7799 0.956055 24.5956C0.956055 22.4114 2.93395 15.8586 12.8234 15.8586C22.7129 15.8586 24.6908 22.4114 24.6908 24.5956C24.6908 26.7799 22.7129 26.7799 22.7129 26.7799H2.93395ZM12.8234 13.6744C14.3971 13.6744 15.9064 12.984 17.0192 11.7551C18.132 10.5262 18.7571 8.8595 18.7571 7.1216C18.7571 5.3837 18.132 3.71699 17.0192 2.48811C15.9064 1.25923 14.3971 0.568848 12.8234 0.568848C11.2497 0.568848 9.74046 1.25923 8.62768 2.48811C7.5149 3.71699 6.88974 5.3837 6.88974 7.1216C6.88974 8.8595 7.5149 10.5262 8.62768 11.7551C9.74046 12.984 11.2497 13.6744 12.8234 13.6744Z" fill="black"/>
</svg>
