<svg width="214" height="213" viewBox="0 0 214 213" fill="none" xmlns="http://www.w3.org/2000/svg">
<ellipse cx="107" cy="106.5" rx="107" ry="106.5" fill="#E1DACF"/>
<g clip-path="url(#clip0)">
<path d="M141.2 83.3416C141.2 92.3802 137.547 101.049 131.046 107.44C124.544 113.831 115.726 117.422 106.531 117.422C97.3358 117.422 88.5175 113.831 82.0158 107.44C75.514 101.049 71.8613 92.3802 71.8613 83.3416C71.8613 74.3029 75.514 65.6344 82.0158 59.2431C88.5175 52.8518 97.3358 49.2612 106.531 49.2612C115.726 49.2612 124.544 52.8518 131.046 59.2431C137.547 65.6344 141.2 74.3029 141.2 83.3416Z" fill="black"/>
<path fill-rule="evenodd" clip-rule="evenodd" d="M14.0791 106.062C14.0791 81.9587 23.8195 58.8428 41.1576 41.7993C58.4957 24.7558 82.0111 15.1809 106.531 15.1809C131.051 15.1809 154.566 24.7558 171.904 41.7993C189.242 58.8428 198.983 81.9587 198.983 106.062C198.983 130.165 189.242 153.281 171.904 170.324C154.566 187.368 131.051 196.943 106.531 196.943C82.0111 196.943 58.4957 187.368 41.1576 170.324C23.8195 153.281 14.0791 130.165 14.0791 106.062ZM106.531 26.541C91.2969 26.5418 76.3727 30.7711 63.4761 38.7421C50.5795 46.7131 40.2347 58.1018 33.6322 71.5974C27.0298 85.093 24.4382 100.147 26.1556 115.027C27.873 129.906 33.8297 144.007 43.3401 155.705C51.5452 142.71 69.6079 128.782 106.531 128.782C143.454 128.782 161.505 142.698 169.722 155.705C179.232 144.007 185.189 129.906 186.906 115.027C188.624 100.147 186.032 85.093 179.429 71.5974C172.827 58.1018 162.482 46.7131 149.586 38.7421C136.689 30.7711 121.765 26.5418 106.531 26.541Z" fill="black"/>
</g>
<defs>
<clipPath id="clip0">
<rect width="184.904" height="181.762" fill="white" transform="translate(14.0791 15.1809)"/>
</clipPath>
</defs>
</svg>
