<svg width="41" height="39" viewBox="0 0 41 39" fill="none" xmlns="http://www.w3.org/2000/svg">
<path d="M20.5006 19.2961C25.2181 19.2961 29.0423 15.8032 29.0423 11.4944C29.0423 7.18559 25.2181 3.69263 20.5006 3.69263C15.7832 3.69263 11.959 7.18559 11.959 11.4944C11.959 15.8032 15.7832 19.2961 20.5006 19.2961Z" stroke="black" stroke-width="2"/>
<path d="M29.0421 22.4167H29.6434C30.8924 22.4171 32.0982 22.8339 33.0343 23.589C33.9705 24.3441 34.5726 25.3854 34.7274 26.5173L35.3954 31.3919C35.4555 31.831 35.4126 32.2768 35.2696 32.6996C35.1267 33.1225 34.8869 33.5127 34.5662 33.8444C34.2455 34.1762 33.8512 34.4418 33.4095 34.6237C32.9679 34.8056 32.4889 34.8996 32.0043 34.8996H8.99651C8.512 34.8996 8.033 34.8056 7.59132 34.6237C7.14963 34.4418 6.75535 34.1762 6.43465 33.8444C6.11396 33.5127 5.87417 33.1225 5.73121 32.6996C5.58825 32.2768 5.54539 31.831 5.60547 31.3919L6.27172 26.5173C6.42666 25.3849 7.02922 24.3431 7.9661 23.588C8.90298 22.8328 10.1096 22.4163 11.3591 22.4167H11.9588" stroke="black" stroke-width="2" stroke-linecap="round" stroke-linejoin="round"/>
</svg>
